<?xml version="1.0" standalone="no"?>
<!DOCTYPE svg PUBLIC "-//W3C//DTD SVG 20010904//EN"
 "http://www.w3.org/TR/2001/REC-SVG-20010904/DTD/svg10.dtd">
<svg version="1.0" xmlns="http://www.w3.org/2000/svg"
 width="500.000000pt" height="500.000000pt" viewBox="0 0 500.000000 500.000000"
 preserveAspectRatio="xMidYMid meet">

<g transform="translate(0.000000,500.000000) scale(0.100000,-0.100000)"
fill="#000000" stroke="none">
<path d="M815 2740 l-240 -240 243 -243 242 -242 242 242 243 243 -240 240
c-132 132 -242 240 -245 240 -3 0 -113 -108 -245 -240z m196 -170 c10 -6 19
-15 19 -21 0 -6 -7 -3 -16 5 -21 21 -67 20 -86 -1 -25 -30 -29 -52 -14 -88 18
-42 55 -55 91 -31 14 9 25 12 25 7 0 -5 -14 -14 -31 -22 -27 -10 -36 -10 -58
2 -39 22 -55 62 -41 104 17 51 63 70 111 45z m210 0 c10 -6 19 -16 19 -22 0
-6 -8 -4 -18 5 -28 25 -67 21 -91 -9 -28 -35 -26 -69 4 -99 28 -29 51 -31 85
-9 l25 16 -24 -21 c-32 -29 -57 -26 -93 9 -26 27 -30 36 -25 68 10 60 66 89
118 62z"/>
<path d="M1822 2690 c-30 -12 -57 -70 -48 -105 9 -37 50 -75 81 -75 14 0 40 7
56 16 25 12 28 18 18 30 -10 13 -14 13 -29 -1 -38 -34 -90 -4 -90 52 0 31 26
63 51 63 8 0 24 -7 35 -15 22 -15 34 -11 34 10 0 14 -43 35 -68 34 -9 0 -27
-4 -40 -9z"/>
<path d="M1990 2606 c0 -79 3 -96 15 -96 10 0 15 10 15 30 0 41 35 41 58 0 9
-16 25 -30 35 -30 21 0 22 9 1 39 -15 21 -15 25 2 57 18 33 18 34 -2 61 -18
23 -30 29 -73 31 l-51 3 0 -95z m98 32 c3 -22 -2 -29 -22 -34 -34 -8 -46 2
-46 37 0 28 2 30 33 27 26 -2 33 -8 35 -30z"/>
<path d="M2180 2605 l0 -95 65 0 c51 0 65 3 65 15 0 11 -12 15 -45 15 -41 0
-45 2 -45 25 0 23 4 25 40 25 29 0 40 4 40 15 0 11 -11 15 -40 15 -36 0 -40 3
-40 25 0 23 4 25 45 25 33 0 45 4 45 15 0 12 -14 15 -65 15 l-65 0 0 -95z"/>
<path d="M2378 2605 c-32 -83 -34 -95 -19 -95 10 0 23 11 29 25 9 19 19 25 42
25 23 0 33 -6 42 -25 6 -14 19 -25 28 -25 15 0 13 13 -19 95 -23 62 -41 95
-51 95 -10 0 -28 -33 -52 -95z m66 23 c10 -39 7 -48 -18 -48 -23 0 -24 2 -13
35 12 40 22 44 31 13z"/>
<path d="M2547 2693 c-14 -14 -6 -22 26 -25 l32 -3 3 -77 c2 -60 6 -78 17 -78
12 0 15 17 15 80 l0 80 30 0 c20 0 30 5 30 15 0 12 -15 15 -73 15 -41 0 -77
-3 -80 -7z"/>
<path d="M2740 2605 l0 -95 65 0 c51 0 65 3 65 15 0 11 -12 15 -45 15 -41 0
-45 2 -45 25 0 23 4 25 40 25 29 0 40 4 40 15 0 11 -11 15 -40 15 -36 0 -40 3
-40 25 0 23 4 25 45 25 33 0 45 4 45 15 0 12 -14 15 -65 15 l-65 0 0 -95z"/>
<path d="M1822 2320 c-30 -12 -57 -70 -48 -105 9 -37 50 -75 81 -75 14 0 40 7
56 16 25 12 28 18 18 30 -10 13 -14 13 -29 -1 -38 -34 -90 -4 -90 52 0 31 26
63 51 63 8 0 24 -7 35 -15 22 -15 34 -11 34 10 0 14 -43 35 -68 34 -9 0 -27
-4 -40 -9z"/>
<path d="M1980 2276 c0 -95 25 -136 85 -136 60 0 85 41 85 136 0 47 -2 54 -20
54 -18 0 -20 -7 -20 -61 0 -72 -12 -99 -45 -99 -33 0 -45 27 -45 99 0 54 -2
61 -20 61 -18 0 -20 -7 -20 -54z"/>
<path d="M2210 2236 c0 -79 3 -96 15 -96 10 0 15 10 15 30 0 41 35 41 58 0 9
-16 25 -30 35 -30 21 0 22 9 1 39 -15 21 -15 25 2 57 18 33 18 34 -2 61 -18
23 -30 29 -73 31 l-51 3 0 -95z m98 32 c3 -22 -2 -29 -22 -34 -34 -8 -46 2
-46 37 0 28 2 30 33 27 26 -2 33 -8 35 -30z"/>
<path d="M2400 2235 c0 -88 1 -95 20 -95 16 0 20 7 20 30 0 23 4 30 20 30 12
0 26 -12 35 -30 10 -19 23 -30 36 -30 21 0 21 0 -1 35 -20 32 -20 36 -6 51 24
23 20 70 -6 88 -13 9 -43 16 -70 16 l-48 0 0 -95z m104 42 c9 -15 7 -21 -8
-33 -36 -26 -56 -18 -56 22 0 32 2 35 26 32 15 -2 32 -11 38 -21z"/>
<path d="M2600 2235 c0 -78 3 -95 15 -95 12 0 15 17 15 95 0 78 -3 95 -15 95
-12 0 -15 -17 -15 -95z"/>
<path d="M2732 2320 c-30 -12 -57 -70 -48 -105 9 -37 50 -75 81 -75 14 0 40 7
56 16 25 12 28 18 18 30 -10 13 -14 13 -29 -1 -38 -34 -90 -4 -90 52 0 31 26
63 51 63 8 0 24 -7 35 -15 22 -15 34 -11 34 10 0 14 -43 35 -68 34 -9 0 -27
-4 -40 -9z"/>
<path d="M2890 2276 c0 -95 25 -136 85 -136 60 0 85 41 85 136 0 47 -2 54 -20
54 -18 0 -20 -7 -20 -61 0 -72 -12 -99 -45 -99 -33 0 -45 27 -45 99 0 54 -2
61 -20 61 -18 0 -20 -7 -20 -54z"/>
<path d="M3110 2235 l0 -95 65 0 c51 0 65 3 65 15 0 11 -12 15 -45 15 l-45 0
0 80 c0 73 -2 80 -20 80 -19 0 -20 -7 -20 -95z"/>
<path d="M3290 2256 c0 -69 2 -76 26 -95 33 -26 75 -27 105 -2 20 16 24 30 27
96 4 71 3 77 -14 73 -16 -3 -20 -14 -22 -68 -3 -68 -13 -90 -43 -90 -35 0 -49
28 -49 96 0 50 -3 64 -15 64 -12 0 -15 -15 -15 -74z"/>
<path d="M3510 2235 c0 -76 3 -95 15 -95 10 0 15 16 17 63 l3 62 24 -47 c14
-27 28 -48 33 -48 4 0 18 19 30 43 l23 42 3 -57 c3 -50 6 -58 22 -58 18 0 20
7 20 95 0 88 -1 95 -20 95 -14 0 -27 -15 -45 -50 -14 -27 -29 -50 -33 -50 -5
0 -19 23 -32 50 -16 33 -30 50 -42 50 -16 0 -18 -10 -18 -95z"/>
</g>
</svg>
